<svg xmlns="http://www.w3.org/2000/svg" viewBox="0 0 1200 760"><rect width="1200" height="760" fill="#cedbce"/><circle cx="950" cy="155" r="88" fill="#f6d993"/><path d="M0 440 270 130 535 440 750 240 1200 560V760H0Z" fill="#88a497"/><path d="m175 240 95-110 104 123-104-29Z" fill="#f4f0df"/><path d="M0 595 325 356 590 613 946 310 1200 590V760H0Z" fill="#456d61"/><path d="M0 690q290-180 600 0t600-25V760H0Z" fill="#254e43"/><path d="M495 760q230-100 157-145t-53-58" fill="none" stroke="#d7c39b" stroke-width="32"/><g fill="#1b3c34"><path d="m100 420-65 160h130Z"/><path d="m1110 455-74 182h148Z"/></g></svg>